<svg width="552" height="124" viewBox="0 0 552 124" fill="none" xmlns="http://www.w3.org/2000/svg">
<path d="M179.735 122.09V30.5225H193.39V122.09H179.735ZM179.735 13.8556V0H193.39V13.8556H179.735Z" fill="#1B47F7"/>
<path d="M141.982 32.1282V6.02344H155.636V32.1282H169.492V44.3774H155.636V102.41C155.636 104.017 156.239 105.423 157.444 106.627C158.649 107.832 160.054 108.435 161.661 108.435H169.492V122.089H157.243C153.093 122.089 149.478 120.617 146.399 117.672C143.454 114.593 141.982 110.978 141.982 106.828V44.3774H129.732V32.1282H141.982Z" fill="#1B47F7"/>
<path d="M49.7856 97.5921C49.7856 89.8276 53.3332 83.4018 60.4284 78.3147C66.8542 73.7631 74.7526 71.0857 84.1235 70.2825C90.6832 69.747 95.6364 68.7429 98.9832 67.2704C103.669 65.3962 106.011 62.3171 106.011 58.0333C106.011 53.3478 104.204 49.3986 100.59 46.1857C96.9751 42.9728 92.6912 41.3664 87.738 41.3664C82.5171 41.3664 77.9655 42.9059 74.0832 45.9849C70.0671 49.1978 68.059 53.2139 68.059 58.0333V61.0454H54.2034V55.0212C54.2034 47.2567 57.684 40.8978 64.6453 35.9446C71.0711 31.393 78.7687 29.1172 87.738 29.1172C96.3058 29.1172 103.736 31.4599 110.028 36.1454C116.587 41.0986 119.867 47.3906 119.867 55.0212V100.805C119.867 103.349 120.804 105.49 122.678 107.231C124.419 108.971 126.561 109.841 129.104 109.841V122.09H123.682C120.068 122.09 116.788 121.153 113.843 119.279C110.898 117.271 108.823 114.661 107.618 111.448C104.807 115.598 100.857 118.677 95.7703 120.685C91.0848 122.559 85.9308 123.496 80.3082 123.496C71.0711 123.496 63.7082 121.153 58.2195 116.468C52.5969 111.782 49.7856 105.49 49.7856 97.5921ZM63.4405 97.5921C63.4405 101.474 65.1808 104.687 68.6614 107.231C71.8743 109.507 75.7566 110.645 80.3082 110.645C87.2695 110.645 93.2267 108.57 98.18 104.42C103.401 100.27 106.011 94.9816 106.011 88.5558V76.3066C102.263 79.3857 95.4356 81.3268 85.5292 82.13L81.7138 82.3308C76.7606 82.7324 72.5437 84.272 69.063 86.9494C65.3147 89.7607 63.4405 93.3082 63.4405 97.5921Z" fill="#1B47F7"/>
<path d="M0 122.089V32.1279H13.6548V47.9916C15.6629 42.5029 19.2774 38.2191 24.4984 35.14C29.4516 32.061 35.0072 30.5215 41.1653 30.5215H47.1895V44.3771H41.1653C33.4008 44.3771 26.8411 47.4561 21.4863 53.6142C16.2653 59.5045 13.6548 66.5997 13.6548 74.8997V122.089H0Z" fill="#1B47F7"/>
<path fill-rule="evenodd" clip-rule="evenodd" d="M206.031 76.356C206.031 62.047 209.796 50.6133 217.326 42.0547C224.856 33.4961 234.874 29.2168 247.38 29.2168C247.69 29.2168 247.999 29.2194 248.306 29.2247L248.293 29.2168H366.954V123.495H248.293L248.3 123.487C247.995 123.493 247.688 123.495 247.38 123.495C234.874 123.495 224.856 119.216 217.326 110.657C209.796 102.099 206.031 90.6649 206.031 76.356ZM219.747 76.356C219.747 86.9205 222.234 95.4122 227.21 101.831C232.319 108.25 239.043 111.46 247.38 111.46C255.717 111.46 262.44 108.25 267.55 101.831C272.526 95.4122 275.013 86.9205 275.013 76.356C275.013 65.7914 272.526 57.3666 267.55 51.0813C262.44 44.6624 255.717 41.4529 247.38 41.4529C239.043 41.4529 232.319 44.6624 227.21 51.0813C222.234 57.3666 219.747 65.7914 219.747 76.356ZM340.207 41.2807H325.733V55.7553H340.207V70.2299V84.7045V99.1791V113.654H354.682V99.1791V84.7045V70.2299V55.7553V41.2807H340.207Z" fill="#1B47F7"/>
<path d="M508.821 120.693H382.845V32.1044H508.821C522.193 32.1044 532.068 37.5962 538.66 45.7757C545.31 54.0264 548.715 65.1494 548.715 76.3989C548.715 87.6484 545.31 98.7714 538.66 107.022C532.068 115.202 522.193 120.693 508.821 120.693Z" stroke="#1B47F7" stroke-width="5.68921"/>
<path d="M401.5 85.0594C401.5 81.5375 403.109 78.6229 406.327 76.3154C409.242 74.2509 412.825 73.0364 417.075 72.6721C420.051 72.4292 422.297 71.9738 423.815 71.3058C425.941 70.4557 427.003 69.0591 427.003 67.116C427.003 64.9907 426.184 63.1994 424.544 61.7421C422.905 60.2847 420.961 59.5561 418.715 59.5561C416.347 59.5561 414.282 60.2544 412.521 61.651C410.699 63.1083 409.789 64.93 409.789 67.116V68.4822H403.504V65.7497C403.504 62.2279 405.083 59.3436 408.24 57.0968C411.155 55.0323 414.646 54 418.715 54C422.601 54 425.971 55.0626 428.825 57.1879C431.8 59.4346 433.288 62.2886 433.288 65.7497V86.5167C433.288 87.6705 433.713 88.642 434.563 89.4314C435.353 90.2208 436.324 90.6155 437.478 90.6155V96.1716H435.019C433.379 96.1716 431.891 95.7465 430.556 94.8964C429.22 93.9856 428.278 92.8015 427.732 91.3442C426.457 93.2266 424.666 94.6232 422.358 95.534C420.233 96.3841 417.895 96.8092 415.345 96.8092C411.155 96.8092 407.815 95.7465 405.325 93.6212C402.775 91.496 401.5 88.642 401.5 85.0594ZM407.694 85.0594C407.694 86.8204 408.483 88.2777 410.062 89.4314C411.519 90.4637 413.28 90.9798 415.345 90.9798C418.502 90.9798 421.204 90.0386 423.451 88.1562C425.819 86.2739 427.003 83.8753 427.003 80.9607V75.4046C425.303 76.8012 422.206 77.6817 417.713 78.046L415.982 78.1371C413.736 78.3192 411.823 79.0176 410.244 80.232C408.544 81.5072 407.694 83.1163 407.694 85.0594Z" fill="#1B47F7"/>
<path d="M441.862 110.016V55.3663H448.055V61.1956C449.209 59.1917 450.788 57.613 452.792 56.4592C454.735 55.2448 456.86 54.6376 459.167 54.6376C464.207 54.6376 468.397 56.7629 471.737 61.0134C474.895 65.0211 476.473 69.8181 476.473 75.4046C476.473 80.991 474.895 85.7881 471.737 89.7957C468.397 94.0463 464.207 96.1716 459.167 96.1716C456.86 96.1716 454.735 95.5644 452.792 94.3499C450.788 93.1962 449.209 91.6174 448.055 89.6136V110.016H441.862ZM448.055 75.4046C448.055 79.473 448.996 82.9645 450.879 85.8792C453.004 89.0367 455.767 90.6155 459.167 90.6155C462.568 90.6155 465.3 89.0367 467.365 85.8792C469.247 82.9645 470.189 79.473 470.189 75.4046C470.189 71.3362 469.247 67.8447 467.365 64.93C465.3 61.7724 462.568 60.1937 459.167 60.1937C455.767 60.1937 453.004 61.7724 450.879 64.93C448.996 67.8447 448.055 71.3362 448.055 75.4046Z" fill="#1B47F7"/>
<path d="M481.997 110.016V55.3663H488.191V61.1956C489.344 59.1917 490.923 57.613 492.927 56.4592C494.87 55.2448 496.995 54.6376 499.303 54.6376C504.343 54.6376 508.532 56.7629 511.872 61.0134C515.03 65.0211 516.609 69.8181 516.609 75.4046C516.609 80.991 515.03 85.7881 511.872 89.7957C508.532 94.0463 504.343 96.1716 499.303 96.1716C496.995 96.1716 494.87 95.5644 492.927 94.3499C490.923 93.1962 489.344 91.6174 488.191 89.6136V110.016H481.997ZM488.191 75.4046C488.191 79.473 489.132 82.9645 491.014 85.8792C493.139 89.0367 495.902 90.6155 499.303 90.6155C502.703 90.6155 505.436 89.0367 507.5 85.8792C509.383 82.9645 510.324 79.473 510.324 75.4046C510.324 71.3362 509.383 67.8447 507.5 64.93C505.436 61.7724 502.703 60.1937 499.303 60.1937C495.902 60.1937 493.139 61.7724 491.014 64.93C489.132 67.8447 488.191 71.3362 488.191 75.4046Z" fill="#1B47F7"/>
</svg>
