<svg width="452" height="152" viewBox="0 0 452 152" fill="none" xmlns="http://www.w3.org/2000/svg">
<path d="M221.648 150.27V37.6057H238.449V150.27H221.648ZM221.648 17.0987V0.0507812H238.449V17.0987H221.648Z" fill="white"/>
<path d="M175.196 39.5842V7.46484H191.997V39.5842H209.045V54.6556H191.997V126.059C191.997 128.036 192.738 129.765 194.221 131.248C195.703 132.73 197.433 133.471 199.409 133.471H209.045V150.272H193.974C188.868 150.272 184.42 148.461 180.632 144.837C177.008 141.048 175.196 136.601 175.196 131.495V54.6556H160.125V39.5842H175.196Z" fill="white"/>
<path d="M61.7578 120.13C61.7578 110.577 66.1228 102.671 74.8526 96.4115C82.7589 90.8112 92.4771 87.5169 104.007 86.5286C112.078 85.8698 118.173 84.6344 122.29 82.8226C128.055 80.5166 130.938 76.7281 130.938 71.4573C130.938 65.6922 128.714 60.8332 124.267 56.88C119.82 52.9269 114.549 50.9503 108.454 50.9503C102.031 50.9503 96.4302 52.8445 91.6535 56.6329C86.7121 60.5861 84.2414 65.5275 84.2414 71.4573V75.1633H67.1934V67.7512C67.1934 58.1977 71.476 50.3738 80.0411 44.2794C87.9474 38.6791 97.4185 35.8789 108.454 35.8789C118.996 35.8789 128.138 38.7614 135.879 44.5264C143.95 50.6209 147.986 58.3624 147.986 67.7512V124.084C147.986 127.213 149.139 129.849 151.445 131.99C153.586 134.131 156.222 135.202 159.351 135.202V150.273H152.68C148.233 150.273 144.197 149.12 140.574 146.814C136.95 144.343 134.397 141.132 132.915 137.178C129.456 142.285 124.596 146.073 118.337 148.544C112.572 150.85 106.231 152.003 99.3127 152.003C87.9474 152.003 78.8881 149.12 72.1348 143.355C65.2168 137.59 61.7578 129.849 61.7578 120.13ZM78.5587 120.13C78.5587 124.907 80.7 128.86 84.9826 131.99C88.9357 134.79 93.7124 136.19 99.3127 136.19C107.878 136.19 115.208 133.637 121.302 128.531C127.726 123.425 130.938 116.918 130.938 109.012V93.9408C126.326 97.7292 117.925 100.118 105.737 101.106L101.042 101.353C94.9478 101.847 89.7593 103.741 85.4767 107.036C80.8647 110.495 78.5587 114.86 78.5587 120.13Z" fill="white"/>
<path d="M0.5 150.27V39.582H17.3009V59.1007C19.7716 52.3474 24.2189 47.0766 30.6428 43.2881C36.7372 39.4997 43.5729 37.6055 51.1497 37.6055H58.5619V54.6534H51.1497C41.5963 54.6534 33.5253 58.4419 26.9367 66.0187C20.5128 73.2662 17.3009 81.9961 17.3009 92.2084V150.27H0.5Z" fill="white"/>
<path fill-rule="evenodd" clip-rule="evenodd" d="M254 94C254 76.3943 258.633 62.3262 267.898 51.7957C277.163 41.2653 289.489 36 304.876 36C305.257 36 305.637 36.0032 306.015 36.0097L306 36H452V152H306L306.008 151.99C305.632 151.997 305.255 152 304.876 152C289.489 152 277.163 146.735 267.898 136.204C258.633 125.674 254 111.606 254 94ZM270.876 94C270.876 106.999 273.937 117.447 280.058 125.345C286.346 133.243 294.618 137.191 304.876 137.191C315.134 137.191 323.406 133.243 329.693 125.345C335.815 117.447 338.876 106.999 338.876 94C338.876 81.0014 335.815 70.6355 329.693 62.9021C323.406 55.0043 315.134 51.0553 304.876 51.0553C294.618 51.0553 286.346 55.0043 280.058 62.9021C273.937 70.6355 270.876 81.0014 270.876 94ZM419.091 50.8438H401.281V68.6533H419.091V86.4628V104.272V122.082V139.891H436.9V122.082V104.272V86.4628V68.6533V50.8438H419.091Z" fill="white"/>
</svg>
